<svg width="116" height="151" viewBox="0 0 116 151" fill="none" xmlns="http://www.w3.org/2000/svg">
<rect x="25.5" width="65" height="23" rx="11.5" fill="#D9D9D9"/>
<circle cx="58" cy="11.5" r="2.5" fill="white"/>
<circle cx="75" cy="11.5" r="2.5" fill="white"/>
<circle cx="41" cy="11.5" r="2.5" fill="white"/>
<path d="M58.866 27.5C58.4811 28.1667 57.5189 28.1667 57.134 27.5L54.1029 22.25C53.718 21.5833 54.1991 20.75 54.9689 20.75L61.0311 20.75C61.8009 20.75 62.282 21.5833 61.8971 22.25L58.866 27.5Z" fill="#D9D9D9"/>
<g opacity="0.49">
<path d="M27.024 65.6377C30.4552 65.6377 33.5868 66.7847 35.9752 68.6719C36.5633 68.4728 37.1929 68.3633 37.8483 68.3633C39.8202 68.3633 41.563 69.3413 42.6207 70.8379C47.6994 70.9416 52.0428 73.7067 53.9957 77.6426C55.148 77.2553 56.3888 77.043 57.6822 77.043C63.74 77.043 68.651 81.6688 68.651 87.375C68.651 93.0813 63.74 97.707 57.6822 97.707C53.611 97.707 50.0602 95.6162 48.1676 92.5137C46.4162 93.3245 44.4308 93.7852 42.3248 93.7852C38.1127 93.7852 34.3776 91.9536 32.0504 89.1289C30.4957 89.6867 28.8004 89.9971 27.024 89.9971C25.29 89.9971 23.6332 89.7017 22.109 89.1689C20.4164 91.212 17.5716 92.5537 14.3463 92.5537C9.15623 92.5536 4.9491 89.0818 4.94884 84.7988C4.94884 80.7542 8.70057 77.4337 13.4889 77.0762C13.9155 70.6947 19.8119 65.6377 27.024 65.6377Z" fill="#A7A7A7"/>
<path d="M35.8524 91.666H8.88508C7.0219 91.666 5.56416 93.2777 5.75407 95.1306L10.8251 145.333C10.9894 146.94 12.3393 148.167 13.9561 148.167H57.7484C59.3652 148.167 60.7202 146.945 60.8794 145.333L65.9504 95.1306C66.1403 93.2777 64.6828 91.666 62.8197 91.666H35.8524Z" fill="url(#paint0_linear_4367_15430)"/>
<path d="M68.6704 83.459H3.02305C1.88349 83.459 0.959686 84.3828 0.959686 85.5223V93.7194C0.959686 94.859 1.88349 95.7825 3.02305 95.7825H68.6704C69.81 95.7825 70.7338 94.859 70.7338 93.7194V85.5223C70.7338 84.3828 69.81 83.459 68.6704 83.459Z" fill="url(#paint1_linear_4367_15430)"/>
<path d="M7.13448 74.2044C10.3604 74.2044 12.9755 71.5893 12.9755 68.3634C12.9755 65.1375 10.3604 62.5225 7.13448 62.5225C3.90857 62.5225 1.29352 65.1375 1.29352 68.3634C1.29352 71.5893 3.90857 74.2044 7.13448 74.2044Z" fill="#A7A7A7"/>
<path d="M35.8519 93.9966C38.0629 93.9966 39.8553 92.204 39.8553 89.9929C39.8553 87.7818 38.0629 85.9893 35.8519 85.9893C33.6408 85.9893 31.8482 87.7818 31.8482 89.9929C31.8482 92.204 33.6408 93.9966 35.8519 93.9966Z" fill="#626262"/>
<path d="M35.8521 91.9946C36.9577 91.9946 37.8538 91.0985 37.8538 89.9929C37.8538 88.8874 36.9577 87.9912 35.8521 87.9912C34.7466 87.9912 33.8502 88.8874 33.8502 89.9929C33.8502 91.0985 34.7466 91.9946 35.8521 91.9946Z" fill="#232323"/>
<path d="M54.1705 81.5342C54.5784 81.5342 54.9766 81.5767 55.3609 81.6562H60.0113V87.7031H60.0025C59.8324 90.7765 57.2864 93.2158 54.1705 93.2158C51.0548 93.2157 48.5096 90.7764 48.3395 87.7031H48.3297V81.6562H52.9811C53.3652 81.5768 53.7629 81.5342 54.1705 81.5342Z" fill="#A7A7A7"/>
<path d="M36.2475 90.0397L35.6887 90.4753C35.0963 90.9371 34.9904 91.7917 35.4523 92.3842L63.3399 128.156C63.8018 128.748 64.6563 128.854 65.2487 128.392L65.8075 127.956C66.3999 127.495 66.5059 126.64 66.044 126.048L38.1564 90.2761C37.6945 89.6836 36.8399 89.5778 36.2475 90.0397Z" fill="url(#paint2_linear_4367_15430)"/>
<path d="M113.217 150.984H44.1463C42.9042 150.984 42.0267 149.747 42.4168 148.546L47.8267 131.968C48.073 131.208 48.7659 130.7 49.5512 130.7H107.813C108.598 130.7 109.296 131.208 109.543 131.968L114.947 148.546C115.337 149.747 114.459 150.984 113.217 150.984Z" fill="url(#paint3_linear_4367_15430)"/>
<path d="M79.0433 133.744H78.3145V150.985H79.0433V133.744Z" fill="#767676"/>
<path d="M86.7785 150.985H86.0447L84.5404 133.806L85.2697 133.744L86.7785 150.985Z" fill="#767676"/>
<path d="M94.2314 150.985H93.4971L91.3929 133.852L92.1167 133.765L94.2314 150.985Z" fill="#767676"/>
<path d="M101.622 150.985H100.883L97.8138 133.58L98.5326 133.457L101.622 150.985Z" fill="#767676"/>
<path d="M109.63 150.985H108.87L104.163 133.431L104.871 133.241L109.63 150.985Z" fill="#767676"/>
<path d="M70.9032 150.985H71.637L73.1407 133.806L72.4119 133.744L70.9032 150.985Z" fill="#767676"/>
<path d="M63.4505 150.985H64.1843L66.2887 133.852L65.5649 133.765L63.4505 150.985Z" fill="#767676"/>
<path d="M56.0591 150.985H56.7985L59.8678 133.58L59.149 133.457L56.0591 150.985Z" fill="#767676"/>
<path d="M48.0523 150.985H48.8119L53.5186 133.431L52.8103 133.241L48.0523 150.985Z" fill="#767676"/>
<path d="M80.0601 29H77.3038C76.4335 29 75.7279 29.7054 75.7279 30.5757V127.055C75.7279 127.925 76.4335 128.631 77.3038 128.631H80.0601C80.9304 128.631 81.636 127.925 81.636 127.055V30.5757C81.636 29.7054 80.9304 29 80.0601 29Z" fill="url(#paint4_linear_4367_15430)"/>
<path d="M82.1904 125.947H75.1735C74.6292 125.947 74.1881 126.388 74.1881 126.933V129.458C74.1881 130.002 74.6292 130.443 75.1735 130.443H82.1904C82.7347 130.443 83.1758 130.002 83.1758 129.458V126.933C83.1758 126.388 82.7347 125.947 82.1904 125.947Z" fill="url(#paint5_linear_4367_15430)"/>
<path d="M110.497 128.17H46.8669C46.3113 128.17 45.8609 128.62 45.8609 129.176V133.072C45.8609 133.627 46.3113 134.078 46.8669 134.078H110.497C111.053 134.078 111.503 133.627 111.503 133.072V129.176C111.503 128.62 111.053 128.17 110.497 128.17Z" fill="url(#paint6_linear_4367_15430)"/>
</g>
<defs>
<linearGradient id="paint0_linear_4367_15430" x1="35.8523" y1="71.9809" x2="35.8523" y2="148.167" gradientUnits="userSpaceOnUse">
<stop stop-color="white"/>
<stop offset="1" stop-color="#999999"/>
</linearGradient>
<linearGradient id="paint1_linear_4367_15430" x1="35.8467" y1="83.459" x2="35.8467" y2="95.7825" gradientUnits="userSpaceOnUse">
<stop stop-color="#E2E2E2"/>
<stop offset="0.846311" stop-color="#C1C1C1"/>
<stop offset="1" stop-color="#AFAFAF"/>
</linearGradient>
<linearGradient id="paint2_linear_4367_15430" x1="25.6693" y1="77.0471" x2="65.5281" y2="128.174" gradientUnits="userSpaceOnUse">
<stop stop-color="white"/>
<stop offset="1" stop-color="#999999"/>
</linearGradient>
<linearGradient id="paint3_linear_4367_15430" x1="78.6818" y1="123.633" x2="78.6818" y2="150.984" gradientUnits="userSpaceOnUse">
<stop stop-color="white"/>
<stop offset="1" stop-color="#999999"/>
</linearGradient>
<linearGradient id="paint4_linear_4367_15430" x1="78.682" y1="-5.71182" x2="78.682" y2="128.631" gradientUnits="userSpaceOnUse">
<stop stop-color="white"/>
<stop offset="1" stop-color="#999999"/>
</linearGradient>
<linearGradient id="paint5_linear_4367_15430" x1="78.6819" y1="124.381" x2="78.6819" y2="130.443" gradientUnits="userSpaceOnUse">
<stop stop-color="white"/>
<stop offset="1" stop-color="#999999"/>
</linearGradient>
<linearGradient id="paint6_linear_4367_15430" x1="78.9595" y1="126" x2="78.9595" y2="136" gradientUnits="userSpaceOnUse">
<stop stop-color="white"/>
<stop offset="1" stop-color="#999999"/>
</linearGradient>
</defs>
</svg>
