<svg width="118" height="140" viewBox="0 0 118 140" fill="none" xmlns="http://www.w3.org/2000/svg">
<path d="M117.187 17.8185V54.4151C117.187 60.3287 112.393 65.1194 106.483 65.1194H75.7844C69.8708 65.1194 65.0801 60.3248 65.0801 54.4151V17.8146C65.0801 11.9011 69.8747 7.11035 75.7844 7.11035H106.479C112.393 7.11035 117.187 11.9049 117.187 17.8185Z" fill="#4D83FD"/>
<path d="M106.647 13.1328H75.6144C73.121 13.1328 71.0996 15.1542 71.0996 17.6476V54.5823C71.0996 57.0757 73.121 59.0971 75.6144 59.0971H106.647C109.141 59.0971 111.162 57.0757 111.162 54.5823V17.6476C111.162 15.1542 109.141 13.1328 106.647 13.1328Z" fill="white"/>
<path d="M103.507 7.47162V10.3041C103.507 12.4644 101.755 14.2128 99.5982 14.2128H82.6734C80.5131 14.2128 78.7646 12.4605 78.7646 10.3041V7.47162C78.7646 6.79945 79.3086 6.2555 79.9808 6.2555H83.7729C84.3674 6.2555 84.8725 5.8281 84.9696 5.24141C85.4553 2.26907 88.0313 0 91.1396 0C94.248 0 96.8279 2.26907 97.3097 5.24141C97.4068 5.8281 97.9119 6.2555 98.5064 6.2555H102.299C102.971 6.2555 103.515 6.79945 103.515 7.47162H103.507Z" fill="#DCEAFF"/>
<path d="M83.194 33.8819C81.7708 32.4587 79.4632 32.4587 78.0399 33.8819C76.6167 35.3052 76.6167 37.6128 78.0399 39.036L85.5074 46.5035C86.9306 47.9267 89.2382 47.9267 90.6615 46.5035C92.0847 45.0802 92.0847 42.7726 90.6615 41.3493L83.194 33.8819Z" fill="url(#paint0_linear_2573_3431)"/>
<path d="M106.306 30.8776C107.729 29.4544 107.729 27.1468 106.306 25.7235C104.882 24.3003 102.575 24.3003 101.151 25.7235L85.5215 41.3535C84.0983 42.7767 84.0983 45.0843 85.5215 46.5076C86.9448 47.9308 89.2524 47.9308 90.6757 46.5076L106.306 30.8776Z" fill="#1F00FF"/>
<path d="M1.14624 120.498C1.83396 109.429 6.55472 99.5211 13.8165 92.166V139.778H5.75821C2.44008 139.778 -0.198108 136.976 0.0117033 133.662L1.14236 120.498H1.14624Z" fill="url(#paint1_linear_2573_3431)"/>
<path d="M90.4249 133.736C90.5881 137.023 87.9694 139.781 84.6745 139.781H76.6162V91.9365C84.1345 99.447 88.9757 109.658 89.5429 121.054L90.4249 133.74V133.736Z" fill="url(#paint2_linear_2573_3431)"/>
<path d="M76.6161 91.9325V139.777H13.8203V92.1656C21.867 84.0101 33.0414 78.9863 45.3309 78.9863C57.6204 78.9863 67.8857 83.6138 75.8468 91.1826C76.1033 91.4274 76.3636 91.6799 76.6161 91.9325Z" fill="url(#paint3_linear_2573_3431)"/>
<path d="M56.2608 121.536L47.5847 91.8628L54.7455 84.702C55.3672 84.0803 55.3672 83.074 54.7455 82.4523L46.3298 74.0366C45.7081 73.4149 44.7018 73.4149 44.0801 74.0366L35.6643 82.4523C35.0427 83.074 35.0427 84.0803 35.6643 84.702L42.8251 91.8628L34.149 121.536C34.013 122.002 34.1412 122.511 34.4871 122.853L44.2666 132.632C44.7873 133.153 45.6343 133.153 46.1549 132.632L55.9345 122.853C56.2803 122.507 56.4085 122.002 56.2725 121.536H56.2608Z" fill="#1F00FF"/>
<path d="M16.5084 44.0104C15.7119 47.0138 15.2845 50.1882 15.2845 53.4713C15.2845 56.7545 15.7119 59.9289 16.5084 62.9362C16.182 62.9828 15.8479 63.0022 15.5138 63.0022C10.6997 63.0022 6.79492 58.736 6.79492 53.4713C6.79492 48.2066 10.6997 43.9404 15.5138 43.9404C15.8518 43.9404 16.182 43.9637 16.5084 44.0104Z" fill="url(#paint4_linear_2573_3431)"/>
<path d="M73.666 43.735C74.4625 46.7384 74.8899 49.9128 74.8899 53.1959C74.8899 56.4791 74.4625 59.6535 73.666 62.6608C73.9924 62.7074 74.3265 62.7268 74.6607 62.7268C79.4747 62.7268 83.3795 58.4606 83.3795 53.1959C83.3795 47.9312 79.4747 43.665 74.6607 43.665C74.3226 43.665 73.9924 43.6883 73.666 43.735Z" fill="url(#paint5_linear_2573_3431)"/>
<path d="M75.8816 53.1955C75.8816 71.0722 62.1428 85.5647 45.1986 85.5647C28.2544 85.5647 14.5117 71.0722 14.5117 53.1955C14.5117 50.5884 14.8031 48.0512 15.3587 45.6267C18.5875 31.4023 30.7216 20.8301 45.1986 20.8301C59.6756 20.8301 71.8097 31.4061 75.0346 45.6306C75.5941 48.059 75.8816 50.5922 75.8816 53.1955Z" fill="#FEE1FF"/>
<path d="M75.0343 45.6306C72.2135 46.5436 67.9628 46.3494 64.9322 45.716C56.6214 43.9715 51.7257 40.9914 46.6009 35.1555C40.6446 41.0419 33.6392 46.4038 24.6018 46.4038C21.2875 46.4038 18.3657 46.5203 15.3584 45.6228C18.5872 31.3983 30.7213 20.8262 45.1983 20.8262C59.6753 20.8262 71.8094 31.4022 75.0343 45.6267V45.6306Z" fill="#1F00FF"/>
<defs>
<linearGradient id="paint0_linear_2573_3431" x1="78.7846" y1="34.3416" x2="88.9527" y2="45.0381" gradientUnits="userSpaceOnUse">
<stop stop-color="#7DACFF"/>
<stop offset="0.14" stop-color="#75A5FE"/>
<stop offset="1" stop-color="#4D83FD"/>
</linearGradient>
<linearGradient id="paint1_linear_2573_3431" x1="6.91218" y1="84.1582" x2="6.91218" y2="150.062" gradientUnits="userSpaceOnUse">
<stop offset="0.12" stop-color="#7DACFF"/>
<stop offset="0.24" stop-color="#75A5FE"/>
<stop offset="1" stop-color="#4D83FD"/>
</linearGradient>
<linearGradient id="paint2_linear_2573_3431" x1="83.5245" y1="83.886" x2="83.5245" y2="150.113" gradientUnits="userSpaceOnUse">
<stop offset="0.12" stop-color="#7DACFF"/>
<stop offset="0.24" stop-color="#75A5FE"/>
<stop offset="1" stop-color="#4D83FD"/>
</linearGradient>
<linearGradient id="paint3_linear_2573_3431" x1="45.2182" y1="139.777" x2="45.2182" y2="78.9863" gradientUnits="userSpaceOnUse">
<stop offset="0.12" stop-color="#7DACFF"/>
<stop offset="0.24" stop-color="#75A5FE"/>
<stop offset="1" stop-color="#4D83FD"/>
</linearGradient>
<linearGradient id="paint4_linear_2573_3431" x1="6.79104" y1="53.4713" x2="16.3414" y2="53.4713" gradientUnits="userSpaceOnUse">
<stop stop-color="#FEE1FF"/>
<stop offset="0.28" stop-color="#FCD4FF"/>
<stop offset="0.77" stop-color="#F9B4FF"/>
<stop offset="1" stop-color="#F8A4FF"/>
</linearGradient>
<linearGradient id="paint5_linear_2573_3431" x1="83.3795" y1="53.1959" x2="73.666" y2="53.1959" gradientUnits="userSpaceOnUse">
<stop stop-color="#FEE1FF"/>
<stop offset="0.28" stop-color="#FCD4FF"/>
<stop offset="0.77" stop-color="#F9B4FF"/>
<stop offset="1" stop-color="#F8A4FF"/>
</linearGradient>
</defs>
</svg>
