<svg width="180" height="212" viewBox="0 0 180 212" fill="none" xmlns="http://www.w3.org/2000/svg">
<rect x="54.0322" width="65" height="23" rx="11.5" fill="#D9D9D9"/>
<circle cx="86.5322" cy="11.5" r="2.5" fill="white"/>
<circle cx="103.532" cy="11.5" r="2.5" fill="white"/>
<circle cx="69.5322" cy="11.5" r="2.5" fill="white"/>
<path d="M87.3983 27.5C87.0134 28.1667 86.0511 28.1667 85.6662 27.5L82.6351 22.25C82.2502 21.5833 82.7313 20.75 83.5011 20.75L89.5633 20.75C90.3331 20.75 90.8142 21.5833 90.4293 22.25L87.3983 27.5Z" fill="#D9D9D9"/>
<mask id="path-6-inside-1_2124_964" fill="white">
<path d="M84.1465 42.9076C85.6789 41.6977 87.8279 41.6979 89.3604 42.9076L118.841 66.1859C119.873 67.0011 120.475 68.2531 120.475 69.5756V108.898C120.474 111.263 118.584 113.195 116.234 113.195H57.2734C54.9237 113.195 53.0324 111.263 53.0322 108.898V69.5756C53.0323 68.2531 53.6337 67.0011 54.666 66.1859L84.1465 42.9076Z"/>
</mask>
<path d="M84.1465 42.9076C85.6789 41.6977 87.8279 41.6979 89.3604 42.9076L118.841 66.1859C119.873 67.0011 120.475 68.2531 120.475 69.5756V108.898C120.474 111.263 118.584 113.195 116.234 113.195H57.2734C54.9237 113.195 53.0324 111.263 53.0322 108.898V69.5756C53.0323 68.2531 53.6337 67.0011 54.666 66.1859L84.1465 42.9076Z" fill="#DEDEDE"/>
<path d="M84.1465 42.9076L81.0481 38.9833L81.0479 38.9835L84.1465 42.9076ZM89.3604 42.9076L92.4589 38.9835L92.4585 38.9831L89.3604 42.9076ZM118.841 66.1859L115.742 70.1101L115.742 70.1101L118.841 66.1859ZM120.475 69.5756H125.475V69.5753L120.475 69.5756ZM120.475 108.898L125.475 108.898V108.898H120.475ZM116.234 113.195V118.195H116.235L116.234 113.195ZM53.0322 108.898H48.0322V108.898L53.0322 108.898ZM53.0322 69.5756L48.0322 69.5753V69.5756H53.0322ZM54.666 66.1859L51.5674 62.2618L51.5673 62.2619L54.666 66.1859ZM84.1465 42.9076L87.2449 46.8319C86.9604 47.0565 86.546 47.0562 86.2622 46.8321L89.3604 42.9076L92.4585 38.9831C89.1098 36.3396 84.3974 36.3389 81.0481 38.9833L84.1465 42.9076ZM89.3604 42.9076L86.2618 46.8318L115.742 70.1101L118.841 66.1859L121.939 62.2618L92.4589 38.9835L89.3604 42.9076ZM118.841 66.1859L115.742 70.1101C115.559 69.9658 115.475 69.7649 115.475 69.5759L120.475 69.5756L125.475 69.5753C125.474 66.7413 124.187 64.0365 121.939 62.2617L118.841 66.1859ZM120.475 69.5756H115.475V108.898H120.475H125.475V69.5756H120.475ZM120.475 108.898L115.475 108.897C115.475 108.576 115.748 108.195 116.234 108.195L116.234 113.195L116.235 118.195C121.421 118.194 125.474 113.949 125.475 108.898L120.475 108.898ZM116.234 113.195V108.195H57.2734V113.195V118.195H116.234V113.195ZM57.2734 113.195V108.195C57.7586 108.195 58.0322 108.575 58.0322 108.897L53.0322 108.898L48.0322 108.898C48.0327 113.95 52.0889 118.195 57.2734 118.195V113.195ZM53.0322 108.898H58.0322V69.5756H53.0322H48.0322V108.898H53.0322ZM53.0322 69.5756L58.0322 69.5759C58.0322 69.7652 57.9473 69.9658 57.7647 70.11L54.666 66.1859L51.5673 62.2619C49.3202 64.0364 48.0324 66.7411 48.0322 69.5753L53.0322 69.5756ZM54.666 66.1859L57.7646 70.1101L87.2451 46.8318L84.1465 42.9076L81.0479 38.9835L51.5674 62.2618L54.666 66.1859Z" fill="#DEDEDE" mask="url(#path-6-inside-1_2124_964)"/>
<path d="M20.876 157.234V158.641H7.96973V157.234H13.501V153.969H15.2197V157.234H20.876ZM15.2666 148.156C15.2666 150.297 17.4072 152.406 20.376 152.875L19.626 154.312C17.2354 153.859 15.2822 152.492 14.3447 150.641C13.4072 152.484 11.4697 153.875 9.09473 154.312L8.34473 152.875C11.2979 152.406 13.4072 150.281 13.4229 148.156V147.125H15.2666V148.156ZM34.6729 153.203V154.609H21.7979V153.203H27.3604V151.234H29.0791V153.203H34.6729ZM29.0947 147.031C29.0947 148.75 30.9854 150.312 33.9385 150.688L33.2666 152.047C30.9463 151.688 29.1025 150.641 28.2041 149.156C27.2979 150.641 25.4541 151.688 23.126 152.047L22.501 150.688C25.4072 150.312 27.3291 148.719 27.3291 147.031V146.5H29.0947V147.031ZM33.0947 155.734V160.391H31.3604V157.094H23.2197V155.734H33.0947ZM43.8447 150.703V152.094H41.2197V153.688C42.3994 153.641 43.5713 153.562 44.6729 153.453L44.7979 154.703C41.7979 155.125 38.5479 155.203 35.9229 155.203L35.6885 153.812C36.8525 153.805 38.1416 153.797 39.4697 153.75V152.094H36.9072V147.141H43.7354V148.547H38.6572V150.703H43.8447ZM47.4072 146.266V156.875H45.6572V146.266H47.4072ZM47.8135 158.703V160.109H37.9385V156.094H39.6885V158.703H47.8135ZM64.9385 146.672V147.984H63.001V150.125H64.8604V151.438H54.4854V150.125H56.3447V147.984H54.4072V146.672H64.9385ZM66.126 152.328V153.703H53.251V152.328H66.126ZM64.5166 154.656V158.016H56.4854V158.969H64.9072V160.266H54.7822V156.812H62.8135V155.922H54.7666V154.656H64.5166ZM58.0791 150.125H61.251V147.984H58.0791V150.125ZM72.5166 147.734V152.922H69.1729V155.578C70.6338 155.562 72.0166 155.5 73.6104 155.203L73.751 156.625C71.8604 156.969 70.2666 157.016 68.4854 157.016H67.501V151.547H70.8447V149.125H67.4854V147.734H72.5166ZM79.2354 146.266V160.391H77.5791V146.266H79.2354ZM76.3291 146.562V159.672H74.6885V152.594H73.1416V151.172H74.6885V146.562H76.3291ZM92.6572 146.266V160.406H90.9072V146.266H92.6572ZM85.0479 147.297C87.1729 147.297 88.7197 149.234 88.7354 152.281C88.7197 155.359 87.1729 157.281 85.0479 157.281C82.9072 157.281 81.3604 155.359 81.3604 152.281C81.3604 149.234 82.9072 147.297 85.0479 147.297ZM85.0479 148.859C83.8447 148.859 83.0322 150.125 83.0322 152.281C83.0322 154.453 83.8447 155.719 85.0479 155.719C86.2354 155.719 87.0479 154.453 87.0479 152.281C87.0479 150.125 86.2354 148.859 85.0479 148.859ZM102.032 148.203C102.032 150.391 104.173 152.578 107.126 153.094L106.345 154.547C103.978 154.047 102.04 152.617 101.126 150.719C100.188 152.602 98.251 154.039 95.8916 154.547L95.126 153.094C98.0479 152.562 100.173 150.375 100.188 148.203V147.156H102.032V148.203ZM107.642 157.156V158.594H94.7354V157.156H107.642ZM119.626 146.266V151.781H121.72V153.234H119.626V160.359H117.892V146.266H119.626ZM115.892 147.734C115.892 151.891 114.173 155.531 109.47 157.844L108.485 156.5C111.923 154.789 113.782 152.383 114.142 149.172H109.251V147.734H115.892ZM129.392 154.531V156.047H131.251V154.531H132.86V159.016C134.517 158.32 135.282 156.891 135.282 155.547V154.422H137.017V155.547C137.017 157.016 137.767 158.438 139.517 159.031L138.626 160.328C137.384 159.883 136.579 159.023 136.142 157.953C135.665 158.992 134.86 159.852 133.688 160.328L132.86 159.094V160.219H127.767V154.531H129.392ZM129.392 158.891H131.251V157.344H129.392V158.891ZM130.11 146.844C131.931 146.844 133.368 147.859 133.735 149.391H136.282V146.266H138.017V153.75H136.282V150.828H133.735C133.392 152.398 131.938 153.438 130.11 153.438C127.938 153.438 126.376 152.078 126.376 150.125C126.376 148.188 127.938 146.844 130.11 146.844ZM130.11 148.281C128.892 148.281 128.032 149 128.032 150.125C128.032 151.266 128.892 152.016 130.11 152.016C131.298 152.016 132.142 151.266 132.157 150.125C132.142 149 131.298 148.281 130.11 148.281ZM143.876 147.297C145.79 147.297 147.204 148.891 147.454 151.469H150.142V146.266H151.86V160.406H150.142V152.875H147.47C147.282 155.602 145.845 157.281 143.876 157.281C141.751 157.281 140.251 155.359 140.251 152.281C140.251 149.234 141.751 147.297 143.876 147.297ZM143.876 148.859C142.704 148.859 141.907 150.125 141.923 152.281C141.907 154.453 142.704 155.719 143.876 155.719C145.048 155.719 145.829 154.453 145.845 152.281C145.829 150.125 145.048 148.859 143.876 148.859ZM166.751 157.25V158.672H153.845V157.25H156.829V153.672C155.704 153.031 155.024 152.023 155.032 150.766C155.017 148.516 157.235 147.031 160.267 147.031C163.313 147.031 165.532 148.516 165.532 150.766C165.532 152 164.876 152.992 163.782 153.641V157.25H166.751ZM160.267 148.406C158.157 148.406 156.72 149.297 156.735 150.766C156.72 152.219 158.157 153.125 160.267 153.125C162.376 153.125 163.829 152.219 163.829 150.766C163.829 149.297 162.376 148.406 160.267 148.406ZM158.548 157.25H162.017V154.297C161.478 154.422 160.892 154.484 160.267 154.484C159.657 154.484 159.079 154.422 158.548 154.312V157.25ZM169.392 159.125C168.72 159.125 168.173 158.578 168.173 157.906C168.173 157.25 168.72 156.703 169.392 156.703C170.032 156.703 170.595 157.25 170.595 157.906C170.595 158.578 170.032 159.125 169.392 159.125Z" fill="#797C82"/>
<path d="M13.3467 179.896V180.539C13.333 181.332 13.333 182.549 13.0322 184.135L11.9521 184.053C12.2461 182.597 12.2734 181.564 12.2939 180.799H7.29004V179.896H13.3467ZM10.2158 182.59V185.201C11.5625 185.146 12.957 185.051 14.2217 184.873L14.29 185.666C11.7471 186.104 8.80762 186.158 6.64746 186.158L6.53809 185.27C7.32422 185.263 8.21289 185.256 9.14941 185.229V182.59H10.2158ZM16.1357 178.953V182.918H17.9131V183.834H16.1357V188.1H15.042V178.953H16.1357ZM16.5322 189.945V190.848H8.41113V187.279H9.49121V189.945H16.5322ZM28.7412 178.953V191.135H27.6748V178.953H28.7412ZM25.0498 180.088V184.408H20.5107V187.279C22.5273 187.279 24.3252 187.19 26.499 186.842L26.6084 187.744C24.3662 188.1 22.5205 188.182 20.4287 188.182H19.417V183.533H23.9697V180.977H19.3896V180.088H25.0498ZM40.3076 178.912V181.865H42.1533V182.754H40.3076V185.639H39.2412V178.912H40.3076ZM40.3076 186.268V188.961H33.6357V190.15H40.7588V190.971H32.583V188.168H39.2412V187.074H32.5557V186.268H40.3076ZM38.0791 180.061V180.922H30.833V180.061H33.9229V178.83H34.9893V180.061H38.0791ZM34.4561 181.469C36.2197 181.469 37.3682 182.234 37.3818 183.465C37.3682 184.695 36.2197 185.461 34.4561 185.461C32.6787 185.461 31.5166 184.695 31.5303 183.465C31.5166 182.234 32.6787 181.469 34.4561 181.469ZM34.4561 182.262C33.3076 182.262 32.542 182.74 32.5557 183.465C32.542 184.203 33.3076 184.654 34.4561 184.654C35.6045 184.654 36.3564 184.203 36.3701 183.465C36.3564 182.74 35.6045 182.262 34.4561 182.262ZM56.4404 179.336V180.184H54.5674V182.535H56.3994V183.369H47.499V182.535H49.3311V180.184H47.458V179.336H56.4404ZM57.4932 184.395V185.256H46.4189V184.395H57.4932ZM56.0713 186.35V188.988H48.8525V190.15H56.4404V190.971H47.7861V188.209H55.0186V187.156H47.7588V186.35H56.0713ZM50.3975 182.535H53.501V180.184H50.3975V182.535ZM63.2627 180.307V184.504H59.9678V187.211C61.3691 187.204 62.6953 187.156 64.3154 186.869L64.3975 187.758C62.6611 188.072 61.2803 188.1 59.7354 188.113H58.9287V183.615H62.2373V181.195H58.9014V180.307H63.2627ZM68.9092 178.953V191.107H67.8838V178.953H68.9092ZM66.4209 179.254V190.465H65.4092V184.217H63.8506V183.342H65.4092V179.254H66.4209ZM80.6396 178.953V191.135H79.5596V178.953H80.6396ZM74.1729 179.896C75.9775 179.91 77.2764 181.551 77.2764 184.135C77.2764 186.719 75.9775 188.359 74.1729 188.359C72.3545 188.359 71.0693 186.719 71.0693 184.135C71.0693 181.551 72.3545 179.91 74.1729 179.896ZM74.1729 180.854C72.9561 180.867 72.1084 182.152 72.1084 184.135C72.1084 186.117 72.9561 187.402 74.1729 187.402C75.3896 187.402 76.2373 186.117 76.2373 184.135C76.2373 182.152 75.3896 180.867 74.1729 180.854ZM88.7744 180.744C88.7744 182.822 91.1533 184.682 93.2725 185.078L92.7803 185.98C90.9482 185.557 89.0137 184.251 88.2275 182.453C87.4414 184.244 85.5137 185.55 83.6748 185.98L83.1826 185.078C85.2881 184.668 87.6533 182.836 87.6533 180.744V179.814H88.7744V180.744ZM93.8467 188.564V189.453H82.7178V188.564H93.8467ZM105.933 184.6V185.447H94.8037V184.6H105.933ZM104.538 186.418V189.002H97.2373V190.164H104.935V190.943H96.1572V188.264H103.472V187.225H96.1436V186.418H104.538ZM104.497 179.322V181.838H97.3193V182.904H104.716V183.684H96.2529V181.1H103.417V180.102H96.2119V179.322H104.497ZM114.054 181.373C114.054 182.713 114.997 184.08 116.556 184.668L115.995 185.488C114.826 185.037 113.985 184.169 113.548 183.123C113.097 184.285 112.229 185.317 111.032 185.83L110.444 184.996C112.044 184.299 113.028 182.727 113.028 181.373V179.719H114.054V181.373ZM120.753 178.967V186.473H119.728V183.123H118.114V186.09H117.103V179.199H118.114V182.234H119.728V178.967H120.753ZM116.733 186.746C119.249 186.746 120.821 187.539 120.821 188.92C120.821 190.287 119.249 191.08 116.733 191.08C114.204 191.08 112.646 190.287 112.659 188.92C112.646 187.539 114.204 186.746 116.733 186.746ZM116.733 187.566C114.874 187.566 113.712 188.072 113.726 188.92C113.712 189.754 114.874 190.246 116.733 190.246C118.579 190.246 119.741 189.754 119.755 188.92C119.741 188.072 118.579 187.566 116.733 187.566ZM126.714 180.867C126.7 182.604 127.931 184.135 129.722 184.736L129.12 185.57C127.78 185.064 126.728 184.08 126.208 182.795C125.682 184.251 124.567 185.386 123.104 185.939L122.517 185.064C124.39 184.408 125.634 182.795 125.647 180.908V179.65H126.714V180.867ZM132.606 178.953V186.158H131.526V182.453H128.819V181.564H131.526V178.953H132.606ZM128.573 186.514C131.103 186.514 132.647 187.348 132.647 188.811C132.647 190.26 131.103 191.08 128.573 191.08C126.044 191.08 124.499 190.26 124.499 188.811C124.499 187.348 126.044 186.514 128.573 186.514ZM128.573 187.361C126.714 187.361 125.552 187.908 125.565 188.811C125.552 189.686 126.714 190.219 128.573 190.219C130.433 190.219 131.581 189.686 131.581 188.811C131.581 187.908 130.433 187.361 128.573 187.361ZM147.55 178.953V183.971H149.587V184.859H147.55V191.107H146.483V178.953H147.55ZM145.308 180.908V181.797H138.075V180.908H141.206V179.104H142.272V180.908H145.308ZM141.753 182.809C143.476 182.809 144.72 183.957 144.733 185.598C144.72 187.238 143.476 188.387 141.753 188.387C140.017 188.387 138.759 187.238 138.772 185.598C138.759 183.957 140.017 182.809 141.753 182.809ZM141.753 183.711C140.618 183.711 139.784 184.504 139.798 185.598C139.784 186.705 140.618 187.484 141.753 187.471C142.874 187.484 143.694 186.705 143.708 185.598C143.694 184.504 142.874 183.711 141.753 183.711ZM160.306 178.953V191.107H159.239V184.736H156.341V183.848H159.239V178.953H160.306ZM156.368 180.279C156.368 183.725 154.905 186.787 150.845 188.797L150.257 187.936C153.552 186.343 155.076 184.005 155.288 181.154H150.79V180.279H156.368ZM173.718 183.807V184.709H171.749V191.107H170.683V178.953H171.749V183.807H173.718ZM163.915 180.156V187.115C165.692 187.108 167.504 186.972 169.507 186.555L169.644 187.471C167.552 187.895 165.665 188.018 163.819 188.018H162.849V180.156H163.915ZM4.67871 201.482C4.67871 202.973 5.90918 204.299 7.7002 204.832L7.19434 205.68C5.79297 205.242 4.69922 204.333 4.17285 203.164C3.63965 204.456 2.51172 205.44 1.06934 205.912L0.536133 205.064C2.34082 204.518 3.62598 203.109 3.62598 201.482V201.264H0.87793V200.402H3.62598V198.898H4.70605V200.402H7.42676V201.264H4.67871V201.482ZM10.0381 198.953V202.043H11.8701V202.945H10.0381V206.158H8.97168V198.953H10.0381ZM10.0381 206.719V210.943H2.36816V206.719H10.0381ZM3.4209 207.566V210.068H8.97168V207.566H3.4209ZM15.9033 199.896C17.0176 199.903 17.9199 200.553 18.4463 201.674H21.6455V198.953H22.7119V211.135H21.6455V206.418H18.5283C18.0156 207.648 17.0791 208.359 15.9033 208.359C14.1123 208.359 12.8545 206.719 12.8545 204.135C12.8545 201.551 14.1123 199.91 15.9033 199.896ZM15.9033 200.854C14.7002 200.867 13.8799 202.152 13.8799 204.135C13.8799 206.117 14.7002 207.402 15.9033 207.402C17.0928 207.402 17.9268 206.117 17.9268 204.135C17.9268 202.152 17.0928 200.867 15.9033 200.854ZM18.7607 202.576C18.8701 203.048 18.9385 203.567 18.9385 204.135C18.9385 204.634 18.8838 205.105 18.8018 205.529H21.6455V202.576H18.7607ZM34.2373 198.912V201.865H36.083V202.754H34.2373V205.639H33.1709V198.912H34.2373ZM34.2373 206.268V208.961H27.5654V210.15H34.6885V210.971H26.5127V208.168H33.1709V207.074H26.4854V206.268H34.2373ZM32.0088 200.061V200.922H24.7627V200.061H27.8525V198.83H28.9189V200.061H32.0088ZM28.3857 201.469C30.1494 201.469 31.2979 202.234 31.3115 203.465C31.2979 204.695 30.1494 205.461 28.3857 205.461C26.6084 205.461 25.4463 204.695 25.46 203.465C25.4463 202.234 26.6084 201.469 28.3857 201.469ZM28.3857 202.262C27.2373 202.262 26.4717 202.74 26.4854 203.465C26.4717 204.203 27.2373 204.654 28.3857 204.654C29.5342 204.654 30.2861 204.203 30.2998 203.465C30.2861 202.74 29.5342 202.262 28.3857 202.262ZM50.3701 199.336V200.184H48.4971V202.535H50.3291V203.369H41.4287V202.535H43.2607V200.184H41.3877V199.336H50.3701ZM51.4229 204.395V205.256H40.3486V204.395H51.4229ZM50.001 206.35V208.988H42.7822V210.15H50.3701V210.971H41.7158V208.209H48.9482V207.156H41.6885V206.35H50.001ZM44.3271 202.535H47.4307V200.184H44.3271V202.535ZM57.1924 200.307V204.504H53.8975V207.211C55.2988 207.204 56.625 207.156 58.2451 206.869L58.3271 207.758C56.5908 208.072 55.21 208.1 53.665 208.113H52.8584V203.615H56.167V201.195H52.8311V200.307H57.1924ZM62.8389 198.953V211.107H61.8135V198.953H62.8389ZM60.3506 199.254V210.465H59.3389V204.217H57.7803V203.342H59.3389V199.254H60.3506ZM74.5693 198.953V211.135H73.4893V198.953H74.5693ZM68.1025 199.896C69.9072 199.91 71.2061 201.551 71.2061 204.135C71.2061 206.719 69.9072 208.359 68.1025 208.359C66.2842 208.359 64.999 206.719 64.999 204.135C64.999 201.551 66.2842 199.91 68.1025 199.896ZM68.1025 200.854C66.8857 200.867 66.0381 202.152 66.0381 204.135C66.0381 206.117 66.8857 207.402 68.1025 207.402C69.3193 207.402 70.167 206.117 70.167 204.135C70.167 202.152 69.3193 200.867 68.1025 200.854ZM82.7041 200.744C82.7041 202.822 85.083 204.682 87.2021 205.078L86.71 205.98C84.8779 205.557 82.9434 204.251 82.1572 202.453C81.3711 204.244 79.4434 205.55 77.6045 205.98L77.1123 205.078C79.2178 204.668 81.583 202.836 81.583 200.744V199.814H82.7041V200.744ZM87.7764 208.564V209.453H76.6475V208.564H87.7764ZM99.8623 204.6V205.447H88.7334V204.6H99.8623ZM98.4678 206.418V209.002H91.167V210.164H98.8643V210.943H90.0869V208.264H97.4014V207.225H90.0732V206.418H98.4678ZM98.4268 199.322V201.838H91.249V202.904H98.6455V203.684H90.1826V201.1H97.3467V200.102H90.1416V199.322H98.4268ZM115.435 206.309V207.211H110.417V211.135H109.364V207.211H104.36V206.309H115.435ZM110.431 201.359C110.431 202.877 112.55 204.203 114.724 204.504L114.327 205.365C112.447 205.078 110.677 204.135 109.911 202.809C109.132 204.148 107.334 205.078 105.454 205.365L105.058 204.504C107.218 204.203 109.364 202.891 109.364 201.359V201.346H105.44V200.471H109.364V198.953H110.417V200.471H114.368V201.346H110.431V201.359ZM125.866 198.953V203.902H127.835V204.805H125.866V211.107H124.8V198.953H125.866ZM122.722 200.266C122.722 203.711 121.108 206.842 117.144 208.797L116.542 207.949C119.687 206.384 121.396 204.046 121.642 201.168H117.103V200.266H122.722ZM134.63 201.059V201.934H128.532V201.059H131.062V199.322H132.128V201.059H134.63ZM131.581 202.754C133.112 202.754 134.206 203.902 134.22 205.516C134.206 207.143 133.112 208.305 131.581 208.305C130.063 208.305 128.97 207.143 128.97 205.516C128.97 203.902 130.063 202.754 131.581 202.754ZM131.581 203.656C130.624 203.67 129.927 204.449 129.927 205.516C129.927 206.596 130.624 207.375 131.581 207.361C132.552 207.375 133.263 206.596 133.263 205.516C133.263 204.449 132.552 203.67 131.581 203.656ZM138.909 198.953V211.107H137.884V204.969H136.271V210.506H135.259V199.254H136.271V204.08H137.884V198.953H138.909ZM151.788 208.66V209.549H140.659V208.66H145.663V206.035H141.972V199.814H143.052V202.016H149.368V199.814H150.421V206.035H146.716V208.66H151.788ZM143.052 205.16H149.368V202.891H143.052V205.16ZM156.368 202.412C156.368 204.34 157.312 206.432 158.925 207.389L158.31 208.223C157.141 207.512 156.3 206.213 155.876 204.736C155.425 206.35 154.522 207.737 153.306 208.482L152.622 207.676C154.304 206.691 155.329 204.531 155.329 202.453V200.102H156.368V202.412ZM163.177 198.953V211.107H162.138V198.953H163.177ZM160.661 199.213V210.492H159.649V204.23H157.585V203.314H159.649V199.213H160.661ZM175.987 208.646V209.549H164.858V208.646H167.62V205.365C166.581 204.825 165.952 203.95 165.952 202.85C165.952 200.963 167.798 199.732 170.396 199.719C172.993 199.732 174.839 200.963 174.839 202.85C174.839 203.93 174.23 204.798 173.226 205.338V208.646H175.987ZM170.396 200.607C168.399 200.594 166.991 201.496 166.991 202.85C166.991 204.203 168.399 205.119 170.396 205.119C172.378 205.119 173.8 204.203 173.8 202.85C173.8 201.496 172.378 200.594 170.396 200.607ZM168.673 208.646H172.146V205.748C171.619 205.892 171.031 205.967 170.396 205.967C169.773 205.967 169.192 205.898 168.673 205.762V208.646ZM178.243 210.082C177.765 210.082 177.354 209.686 177.368 209.193C177.354 208.715 177.765 208.318 178.243 208.318C178.722 208.318 179.118 208.715 179.118 209.193C179.118 209.686 178.722 210.082 178.243 210.082Z" fill="#8E8E8E"/>
</svg>
