<svg width="68" height="84" viewBox="0 0 68 84" fill="none" xmlns="http://www.w3.org/2000/svg">
<path d="M61.7744 1.9308L25.8953 75.3027C25.6004 75.9057 25.8974 76.6125 26.5589 76.8814L29.0775 77.9052C29.7389 78.1741 30.5142 77.9033 30.8091 77.3002L66.6882 3.92836C66.9831 3.3253 66.6859 2.61847 66.0244 2.34959L63.5058 1.32574C62.8444 1.05686 62.0693 1.32774 61.7744 1.9308Z" fill="#4D83FD"/>
<path d="M52.4252 41.2618C57.9422 41.2618 62.4144 37.421 62.4144 32.6829C62.4144 27.9448 57.9422 24.104 52.4252 24.104C46.9082 24.104 42.4355 27.9448 42.4355 32.6829C42.4355 37.421 46.9082 41.2618 52.4252 41.2618Z" fill="#78F5BE"/>
<path d="M32.5453 36.2476H7.98525C6.28857 36.2476 4.96116 37.5844 5.13202 39.1241L9.75315 80.8092C9.90017 82.1461 11.1322 83.1605 12.6064 83.1605H52.4842C53.9544 83.1605 55.1904 82.1461 55.3374 80.8092L59.9586 39.1241C60.1294 37.5844 58.8024 36.2476 57.1057 36.2476H32.5453Z" fill="url(#paint0_linear_4367_28324)"/>
<path d="M12.9593 36.9798C17.6863 36.9798 21.5183 34.0975 21.5183 30.5419C21.5183 26.9864 17.6863 24.104 12.9593 24.104C8.23237 24.104 4.40039 26.9864 4.40039 30.5419C4.40039 34.0975 8.23237 36.9798 12.9593 36.9798Z" fill="#78F5BE"/>
<path d="M24.5137 34.8577C31.3343 34.8577 36.8634 30.3308 36.8634 24.7463C36.8634 19.1619 31.3343 14.6348 24.5137 14.6348C17.6932 14.6348 12.1641 19.1619 12.1641 24.7463C12.1641 30.3308 17.6932 34.8577 24.5137 34.8577Z" fill="#78F5BE"/>
<path d="M38.4412 38.0018C44.8667 38.0018 50.0757 33.7358 50.0757 28.4735C50.0757 23.2112 44.8667 18.9453 38.4412 18.9453C32.0157 18.9453 26.8066 23.2112 26.8066 28.4735C26.8066 33.7358 32.0157 38.0018 38.4412 38.0018Z" fill="#78F5BE"/>
<path d="M62.7244 29.4331H2.37489C1.4927 29.4331 0.777344 30.0852 0.777344 30.8895V38.2078C0.777344 39.0122 1.4927 39.6643 2.37489 39.6643H62.7244C63.6066 39.6643 64.3215 39.0122 64.3215 38.2078V30.8895C64.3215 30.0852 63.6066 29.4331 62.7244 29.4331Z" fill="#FA9EFA"/>
<path d="M6.39694 21.7525C9.33538 21.7525 11.7173 19.5806 11.7173 16.9014C11.7173 14.2222 9.33538 12.0503 6.39694 12.0503C3.4585 12.0503 1.07617 14.2222 1.07617 16.9014C1.07617 19.5806 3.4585 21.7525 6.39694 21.7525Z" fill="#78F5BE"/>
<path d="M34.3712 26.6049C37.3096 26.6049 39.6915 24.4331 39.6915 21.7539C39.6915 19.0748 37.3096 16.9028 34.3712 16.9028C31.4327 16.9028 29.0508 19.0748 29.0508 21.7539C29.0508 24.4331 31.4327 26.6049 34.3712 26.6049Z" fill="#78F5BE"/>
<path d="M32.548 38.1819C34.5603 38.1819 36.1916 36.6946 36.1916 34.8598C36.1916 33.025 34.5603 31.5376 32.548 31.5376C30.5356 31.5376 28.9043 33.025 28.9043 34.8598C28.9043 36.6946 30.5356 38.1819 32.548 38.1819Z" fill="#E5E5E5"/>
<path d="M32.5426 36.5178C33.5476 36.5178 34.3624 35.7749 34.3624 34.8585C34.3624 33.9421 33.5476 33.1992 32.5426 33.1992C31.5375 33.1992 30.7227 33.9421 30.7227 34.8585C30.7227 35.7749 31.5375 36.5178 32.5426 36.5178Z" fill="#AFAFAF"/>
<path d="M49.2344 37.5341C52.1729 37.5341 54.5548 35.3621 54.5548 32.683C54.5548 30.0038 52.1729 27.832 49.2344 27.832C46.296 27.832 43.9141 30.0038 43.9141 32.683C43.9141 35.3621 46.296 37.5341 49.2344 37.5341Z" fill="#78F5BE"/>
<path d="M54.5548 27.938H43.9141V32.9557H54.5548V27.938Z" fill="#78F5BE"/>
<path d="M33.0604 34.7643L32.258 35.3347C31.7993 35.6607 31.7176 36.2638 32.0751 36.6819L57.6979 66.6485C58.0555 67.0667 58.7168 67.1414 59.1754 66.8154L59.9779 66.245C60.4365 65.919 60.5184 65.316 60.1608 64.8979L34.538 34.9313C34.1805 34.5131 33.519 34.4383 33.0604 34.7643Z" fill="#E5E5E5"/>
<defs>
<linearGradient id="paint0_linear_4367_28324" x1="32.5453" y1="83.1605" x2="32.5453" y2="36.2476" gradientUnits="userSpaceOnUse">
<stop stop-color="#FA9EFA"/>
<stop offset="0.41" stop-color="#FA9BFA"/>
<stop offset="0.61" stop-color="#FA93FA"/>
<stop offset="0.78" stop-color="#FA86FC"/>
<stop offset="0.91" stop-color="#FA73FD"/>
<stop offset="1" stop-color="#FB64FF"/>
</linearGradient>
</defs>
</svg>
