<svg width="236" height="235" viewBox="0 0 236 235" fill="none" xmlns="http://www.w3.org/2000/svg">
<rect x="76.1318" y="64.22" width="82.4889" height="102.929" rx="6" fill="url(#paint0_linear_2860_4910)"/>
<rect x="81.2418" y="69.3298" width="72.999" height="91.2487" rx="5" fill="#F4F8FF"/>
<path d="M99.4915 60.9072C99.4915 60.3178 99.9693 59.8399 100.559 59.8399H105.15C107.358 59.8399 109.463 58.9085 110.948 57.2747C111.814 56.3229 112.9 55.5987 114.111 55.166L114.37 55.0735C116.314 54.3793 118.438 54.3793 120.382 55.0735L120.711 55.1911C121.88 55.6085 122.941 56.2802 123.819 57.1577C125.309 58.6476 127.305 59.5217 129.411 59.6059L134.113 59.794C134.754 59.8196 135.261 60.3472 135.261 60.9893V69.6668C135.261 72.3028 133.124 74.4397 130.488 74.4397H104.137C101.571 74.4397 99.4915 72.3599 99.4915 69.7943V60.9072Z" fill="#6DF3BB"/>
<circle cx="117.741" cy="65.6797" r="2.91996" fill="white"/>
<path d="M140.073 107.064C142.316 104.821 142.316 101.184 140.073 98.9409C137.83 96.6978 134.193 96.6978 131.95 98.9409L107.317 123.574C105.074 125.817 105.074 129.454 107.317 131.697C109.56 133.94 113.197 133.94 115.44 131.697L140.073 107.064Z" fill="#78F5BE"/>
<path d="M103.646 111.798C101.403 109.555 97.7662 109.555 95.5231 111.798C93.28 114.041 93.28 117.678 95.5231 119.921L107.292 131.69C109.535 133.933 113.172 133.933 115.415 131.69C117.658 129.447 117.658 125.81 115.415 123.567L103.646 111.798Z" fill="url(#paint1_linear_2860_4910)"/>
<g filter="url(#filter0_d_2860_4910)">
<rect x="11.5322" y="11.5" width="212" height="212" rx="106" stroke="url(#paint2_linear_2860_4910)" stroke-width="7" shape-rendering="crispEdges"/>
</g>
<defs>
<filter id="filter0_d_2860_4910" x="0.0322266" y="0" width="235" height="235" filterUnits="userSpaceOnUse" color-interpolation-filters="sRGB">
<feFlood flood-opacity="0" result="BackgroundImageFix"/>
<feColorMatrix in="SourceAlpha" type="matrix" values="0 0 0 0 0 0 0 0 0 0 0 0 0 0 0 0 0 0 127 0" result="hardAlpha"/>
<feOffset/>
<feGaussianBlur stdDeviation="4"/>
<feComposite in2="hardAlpha" operator="out"/>
<feColorMatrix type="matrix" values="0 0 0 0 0 0 0 0 0 0 0 0 0 0 0 0 0 0 0.05 0"/>
<feBlend mode="normal" in2="BackgroundImageFix" result="effect1_dropShadow_2860_4910"/>
<feBlend mode="normal" in="SourceGraphic" in2="effect1_dropShadow_2860_4910" result="shape"/>
</filter>
<linearGradient id="paint0_linear_2860_4910" x1="117.376" y1="64.22" x2="117.376" y2="167.149" gradientUnits="userSpaceOnUse">
<stop stop-color="#81A9FF"/>
<stop offset="1" stop-color="#719BF4"/>
</linearGradient>
<linearGradient id="paint1_linear_2860_4910" x1="96.6968" y1="112.523" x2="112.722" y2="129.381" gradientUnits="userSpaceOnUse">
<stop stop-color="#78F5BE"/>
<stop offset="0.14" stop-color="#78F5BE"/>
<stop offset="1" stop-color="#1BEAA5"/>
</linearGradient>
<linearGradient id="paint2_linear_2860_4910" x1="117.532" y1="8" x2="117.532" y2="227" gradientUnits="userSpaceOnUse">
<stop stop-color="#4D83FD"/>
<stop offset="1" stop-color="#78F5BE"/>
</linearGradient>
</defs>
</svg>
